<svg width="34" height="34" viewBox="0 0 34 34" fill="none" xmlns="http://www.w3.org/2000/svg">
<path d="M9.24081 20.411C9.54677 20.7405 9.70064 20.9057 9.85538 21.0709C11.2876 22.6008 13.542 22.4716 14.7597 20.7238C15.8763 19.1201 16.0724 17.3556 15.2617 15.5621C13.8031 12.3328 9.8633 11.0577 6.61105 12.7106C4.9124 13.5744 3.77732 14.9277 3.05108 16.6632C2.29232 18.476 2.09977 20.389 2.02679 22.3231C2.00217 22.9804 2.02327 23.6394 2.02327 24.3969C-1.62989 18.5902 -0.384916 8.75545 6.1565 3.81785C5.07593 5.87408 3.73072 7.83102 3.61906 10.4496C3.94349 10.1474 4.14923 9.95931 4.35145 9.76775C6.11957 8.08585 8.08815 6.77566 10.5482 6.32487C12.865 5.90044 15.5088 6.61134 17.4105 8.25984C17.0193 8.35914 16.672 8.43559 16.3317 8.53576C14.7298 9.00764 13.9297 10.3249 14.233 11.9778C14.6181 14.0814 16.6228 15.7387 18.9492 15.8723C22.7958 16.092 25.1064 13.005 25.4097 10.2282C25.6752 7.79323 24.818 5.75369 23.1949 3.99008C21.9702 2.66231 20.5036 1.65265 18.9263 0.795003C18.4665 0.544564 17.9979 0.309942 17.4949 0.04808C23.0815 -0.564397 32.2166 4.71239 33.4897 13.7238C32.2729 11.7308 31.1273 9.67636 28.9661 8.26687C29.1701 9.26511 29.3767 10.1052 29.5086 10.9567C29.841 13.1113 29.659 15.2062 28.7173 17.208C27.7537 19.2554 26.1289 20.5349 23.9221 21.3969C24.0276 21.0357 24.0917 20.8002 24.1656 20.5683C24.8496 18.4206 23.5361 16.5191 21.2765 16.389C18.6221 16.237 16.2315 18.1737 15.7172 20.8934C15.0999 24.1517 17.211 27.4162 20.5335 28.3389C22.0985 28.7739 23.6636 28.7159 25.2101 28.2668C27.0749 27.7255 28.8334 26.9417 30.4424 25.8398C30.6314 25.7106 30.8301 25.5964 31.0622 25.4523C30.1918 27.9839 26.0436 31.28 22.139 32.6333C18.3029 33.9628 13.4066 33.642 11.2533 32.374C13.1226 32.2036 14.9856 32.3626 16.7617 31.7756C17.1749 31.6394 17.5776 31.4733 18.1737 31.251C17.7816 31.1157 17.56 31.0331 17.3358 30.9628C15.8235 30.4883 14.3482 29.9294 13.0329 29.0225C11.1276 27.7088 9.81582 25.9733 9.32169 23.6851C9.21179 23.1746 9.17662 22.6421 9.1608 22.1183C9.14497 21.6263 9.203 21.1333 9.24081 20.411Z" fill="url(#paint0_linear_1013_565)"/>
<defs>
<linearGradient id="paint0_linear_1013_565" x1="16.7449" y1="0" x2="16.7449" y2="33.4897" gradientUnits="userSpaceOnUse">
<stop stop-color="#656565"/>
<stop offset="1" stop-color="white"/>
</linearGradient>
</defs>
</svg>
