<svg width="34" height="34" viewBox="0 0 34 34" fill="none" xmlns="http://www.w3.org/2000/svg">
<path d="M14.7597 25.7238C15.062 24.1279 16.0724 22.3556 15.2617 20.5621C13.8031 17.3328 9.86329 16.0577 6.61105 17.7106C4.9124 18.5744 3.77732 19.9277 3.05108 21.6632C2.29232 23.476 2.09977 25.389 2.02679 27.3231C2.00217 27.9804 2.02327 28.6394 2.02327 29.3969C-1.62989 23.5902 -0.384916 13.7554 6.1565 8.81785C5.07593 10.8741 3.73072 12.831 3.61906 15.4496C3.94349 15.1474 4.14923 14.9593 4.35145 14.7677C6.11957 13.0859 8.08815 11.7757 10.5482 11.3249C12.865 10.9004 15.5088 11.6113 17.4105 13.2598C17.0193 13.3591 16.672 13.4356 16.3317 13.5358C14.7298 14.0076 13.9297 15.3249 14.233 16.9778C14.6181 19.0814 18.9501 21.2554 21.2765 21.389C25.1231 21.6087 25.1064 18.005 25.4097 15.2282C25.6752 12.7932 24.818 10.7537 23.1949 8.99008C21.9702 7.66231 20.5036 6.65265 18.9263 5.795C18.4665 5.54456 17.9979 5.30994 17.4949 5.04808C23.0815 4.4356 32.2166 9.71239 33.4897 18.7238C32.2729 16.7308 31.1273 14.6764 28.9661 13.2669C29.1701 14.2651 29.3767 15.1052 29.5086 15.9567C29.841 18.1113 29.659 20.2062 28.7173 22.208C27.7537 24.2554 26.1289 25.5349 23.9221 26.3969C24.0276 26.0357 24.0917 25.8002 24.1656 25.5683C24.8496 23.4206 23.5361 21.5191 21.2765 21.389C18.6221 21.237 15.274 23.0041 14.7597 25.7238Z" fill="url(#paint0_linear_1013_560)"/>
<defs>
<linearGradient id="paint0_linear_1013_560" x1="16.7449" y1="5" x2="16.7449" y2="38.4897" gradientUnits="userSpaceOnUse">
<stop stop-color="#656565"/>
<stop offset="1" stop-color="white"/>
</linearGradient>
</defs>
</svg>
