<svg width="34" height="34" viewBox="0 0 34 34" fill="none" xmlns="http://www.w3.org/2000/svg">
<path d="M20.5645 18.1652C21.3751 19.9587 20.3647 21.7309 20.0624 23.3268C20.5768 20.6072 23.9248 18.84 26.5792 18.9921C24.2528 18.8585 19.9209 16.6845 19.5358 14.5808C19.2324 12.9279 20.0325 11.6107 21.6345 11.1388C21.9747 11.0386 22.322 10.9622 22.7133 10.8629C20.8115 9.21439 18.1677 8.5035 15.8509 8.92792C13.3909 9.37871 11.4223 10.6889 9.65419 12.3708C9.45197 12.5624 9.24623 12.7504 8.9218 13.0527C9.03346 10.4341 10.3787 8.47713 11.4592 6.4209C4.91782 11.3585 3.67284 21.1933 7.32601 26.9999C7.32601 26.2425 7.30491 25.5834 7.32952 24.9261C7.4025 22.992 7.59505 21.079 8.35382 19.2662C9.08006 17.5307 10.2151 16.1775 11.9138 15.3137C15.166 13.6608 19.1058 14.9358 20.5645 18.1652Z" fill="url(#paint0_linear_1013_555)"/>
<defs>
<linearGradient id="paint0_linear_1013_555" x1="15.941" y1="6.4209" x2="15.941" y2="26.9999" gradientUnits="userSpaceOnUse">
<stop stop-color="#656565"/>
<stop offset="1" stop-color="white"/>
</linearGradient>
</defs>
</svg>
