<svg width="34" height="34" viewBox="0 0 34 34" fill="none" xmlns="http://www.w3.org/2000/svg">
<path d="M7.33592 29.6289C7.52697 29.7068 7.72562 29.7705 7.90812 29.8656C10.4469 31.1868 13.1558 31.835 16.0044 32.0146C21.4403 32.3578 25.8829 28.2012 25.8354 22.7739C25.7974 18.434 22.406 14.6329 18.0727 14.0227C16.761 13.8383 15.4874 13.9144 14.2251 14.286C13.6063 14.4685 12.9771 14.5949 12.3688 14.3193C11.558 13.9514 11.0894 13.306 11.02 12.405C10.9507 11.5001 11.2814 10.7464 12.096 10.3529C12.8288 9.99927 13.6187 9.71032 14.4162 9.54968C22.425 7.93764 29.4349 14.7251 28.3799 22.4365C27.9427 25.634 26.3943 28.1936 23.8793 30.1887C23.6141 30.3988 23.3413 30.6003 23.1265 30.9092C23.2852 30.8398 23.4535 30.7875 23.6008 30.7001C27.9046 28.129 30.1839 24.3128 30.3949 19.3341C30.7238 11.5799 24.6482 6.45677 19.4167 5.57756C14.0122 4.66889 9.56008 6.31135 6.10028 10.5658C5.07374 11.829 3.87422 12.1151 2.63762 11.3052C1.84491 10.7863 1.51129 9.98596 1.81544 9.09059C1.99604 8.55927 2.26313 8.03935 2.57964 7.57455C5.40261 3.42469 9.33956 0.997127 14.2698 0.205365C21.8101 -1.00652 30.4957 3.1462 33.0278 12.6369C35.6122 22.3234 29.184 30.913 20.755 32.9965C17.6412 33.7664 14.5435 33.6229 11.4858 32.6477C9.78345 32.1049 8.42424 31.0727 7.33592 29.6289Z" fill="url(#paint0_linear_1013_546)"/>
<path d="M21.3375 28.3847C20.1551 30.1726 17.7646 31.1202 15.5471 30.6811C12.7906 30.1355 10.7737 27.7374 10.6786 24.8964C10.5912 22.2578 12.5292 19.7057 15.203 19.0527C17.2304 18.5585 19.0924 18.9605 20.6978 20.3454C21.653 21.1695 22.1511 22.2473 22.3441 23.4659C22.4819 24.3356 22.1692 25.096 21.5665 25.7138C20.7691 26.5312 19.3576 26.4124 18.6495 25.4496C18.3757 25.077 18.2103 24.615 18.0412 24.1759C17.4385 22.6152 15.97 22.0981 14.5158 22.9498C12.5435 24.1056 12.1224 26.5075 13.5757 28.3201C14.8893 29.9587 17.2228 30.5081 19.254 29.5937C19.983 29.2668 20.6455 28.7925 21.3375 28.3847Z" fill="url(#paint1_linear_1013_546)"/>
<path d="M2.31922 14.7479C3.49593 14.746 4.55098 15.8049 4.56714 17.0025C4.5833 18.1963 3.44365 19.3189 2.23843 19.296C1.05126 19.2732 0.00381225 18.2087 1.02713e-05 17.0196C-0.00379171 15.7811 1.04841 14.7498 2.31922 14.7479Z" fill="url(#paint2_linear_1013_546)"/>
<path d="M6.868 24.4335C6.85279 25.2994 6.13327 25.999 5.27972 25.979C4.4661 25.96 3.68859 25.1777 3.6924 24.3822C3.69715 23.5581 4.44709 22.8043 5.27402 22.7929C6.17699 22.7806 6.88416 23.5077 6.868 24.4335Z" fill="url(#paint3_linear_1013_546)"/>
<defs>
<linearGradient id="paint0_linear_1013_546" x1="17.6552" y1="0" x2="17.6552" y2="33.4895" gradientUnits="userSpaceOnUse">
<stop stop-color="#4C3503"/>
<stop offset="1" stop-color="#976803"/>
</linearGradient>
<linearGradient id="paint1_linear_1013_546" x1="16.526" y1="18.8501" x2="16.526" y2="30.7877" gradientUnits="userSpaceOnUse">
<stop stop-color="#4C3503"/>
<stop offset="1" stop-color="#976803"/>
</linearGradient>
<linearGradient id="paint2_linear_1013_546" x1="2.28365" y1="14.7479" x2="2.28365" y2="19.2964" gradientUnits="userSpaceOnUse">
<stop stop-color="#4C3503"/>
<stop offset="1" stop-color="#976803"/>
</linearGradient>
<linearGradient id="paint3_linear_1013_546" x1="5.28033" y1="22.7928" x2="5.28033" y2="25.9794" gradientUnits="userSpaceOnUse">
<stop stop-color="#4C3503"/>
<stop offset="1" stop-color="#976803"/>
</linearGradient>
</defs>
</svg>
