<svg width="34" height="34" viewBox="0 0 34 34" fill="none" xmlns="http://www.w3.org/2000/svg">
<path d="M28.6388 18.7395C28.6646 21.6909 27.3626 24.2666 25.2951 25.9471C28.8829 23.8218 30.8931 20.5242 31.1833 18.402C32.2383 10.6907 25.2284 3.90319 17.2195 5.51523C16.4221 5.67586 15.6322 5.96481 14.8994 6.3184C14.0848 6.7119 13.754 7.46565 13.8234 8.37052C13.8928 9.27159 14.3614 9.91697 15.1722 10.2848C15.7805 10.5605 16.4097 10.434 17.0285 10.2515C18.2908 9.8799 19.5644 9.80386 20.8761 9.98826C25.2094 10.5985 28.6008 14.3995 28.6388 18.7395Z" fill="url(#paint0_linear_1013_538)"/>
<path d="M24.1412 24.3503C22.9588 26.1381 20.5683 27.0858 18.3508 26.6467C15.5943 26.1011 13.5774 23.703 13.4823 20.862C13.3949 18.2234 15.333 15.6713 18.0067 15.0183C20.0341 14.5241 21.8961 14.9261 23.5015 16.311C24.4568 17.1351 24.9548 18.2129 25.1478 19.4315C25.2856 20.3012 24.9729 21.0616 24.3703 21.6794C23.5728 22.4968 22.1613 22.378 21.4532 21.4151C21.1794 21.0425 21.0141 20.5806 20.8449 20.1415C20.2423 18.5808 18.7737 18.0637 17.3195 18.9153C15.3472 20.0711 14.9261 22.473 16.3794 24.2856C17.693 25.9243 20.0265 26.4737 22.0577 25.5593C22.7867 25.2323 23.4492 24.758 24.1412 24.3503Z" fill="url(#paint1_linear_1013_538)"/>
<path d="M5.12195 10.7136C6.29867 10.7117 7.35372 11.7706 7.36987 12.9682C7.38603 14.162 6.24639 15.2846 5.04116 15.2617C3.85399 15.2389 2.80655 14.1744 2.80274 12.9853C2.79894 11.7468 3.85114 10.7155 5.12195 10.7136Z" fill="url(#paint2_linear_1013_538)"/>
<path d="M9.67171 20.399C9.6565 21.2649 8.93698 21.9645 8.08343 21.9445C7.26981 21.9255 6.49231 21.1432 6.49611 20.3477C6.50086 19.5236 7.2508 18.7699 8.07773 18.7585C8.9807 18.7461 9.68787 19.4732 9.67171 20.399Z" fill="url(#paint3_linear_1013_538)"/>
<defs>
<linearGradient id="paint0_linear_1013_538" x1="22.5517" y1="5.27612" x2="22.5517" y2="28" gradientUnits="userSpaceOnUse">
<stop stop-color="#4C3503"/>
<stop offset="1" stop-color="#976803"/>
</linearGradient>
<linearGradient id="paint1_linear_1013_538" x1="19.3297" y1="14.8157" x2="19.3297" y2="26.7532" gradientUnits="userSpaceOnUse">
<stop stop-color="#4C3503"/>
<stop offset="1" stop-color="#976803"/>
</linearGradient>
<linearGradient id="paint2_linear_1013_538" x1="5.08639" y1="10.7136" x2="5.08639" y2="15.2621" gradientUnits="userSpaceOnUse">
<stop stop-color="#4C3503"/>
<stop offset="1" stop-color="#976803"/>
</linearGradient>
<linearGradient id="paint3_linear_1013_538" x1="8.08404" y1="18.7583" x2="8.08404" y2="21.9449" gradientUnits="userSpaceOnUse">
<stop stop-color="#4C3503"/>
<stop offset="1" stop-color="#976803"/>
</linearGradient>
</defs>
</svg>
