<svg width="34" height="34" viewBox="0 0 34 34" fill="none" xmlns="http://www.w3.org/2000/svg">
<path d="M27.1412 22.5971C25.9588 24.385 23.5683 25.3326 21.3508 24.8935C18.5943 24.3479 16.5774 21.9498 16.4823 19.1088C16.3949 16.4702 18.333 13.9181 21.0067 13.2651C23.0341 12.7709 24.8961 13.1729 26.5015 14.5578C27.4568 15.3819 27.9548 16.4597 28.1478 17.6783C28.2856 18.548 27.9729 19.3084 27.3703 19.9262C26.5728 20.7436 25.1613 20.6248 24.4532 19.662C24.1794 19.2894 24.0141 18.8274 23.8449 18.3883C23.2423 16.8276 21.7737 16.3105 20.3195 17.1622C18.3472 18.318 17.9261 20.7199 19.3794 22.5325C20.693 24.1711 23.0265 24.7205 25.0577 23.8061C25.7867 23.4792 26.4492 23.0049 27.1412 22.5971Z" fill="url(#paint0_linear_1013_531)"/>
<path d="M8.12195 8.96045C9.29867 8.95855 10.3537 10.0174 10.3699 11.215C10.386 12.4088 9.24639 13.5314 8.04116 13.5086C6.85399 13.4858 5.80655 12.4212 5.80274 11.2321C5.79894 9.99364 6.85114 8.96235 8.12195 8.96045Z" fill="url(#paint1_linear_1013_531)"/>
<path d="M12.6717 18.6458C12.6565 19.5117 11.937 20.2113 11.0834 20.1913C10.2698 20.1723 9.49231 19.3901 9.49611 18.5945C9.50086 17.7704 10.2508 17.0167 11.0777 17.0053C11.9807 16.9929 12.6879 17.7201 12.6717 18.6458Z" fill="url(#paint2_linear_1013_531)"/>
<defs>
<linearGradient id="paint0_linear_1013_531" x1="22.3297" y1="13.0625" x2="22.3297" y2="25.0001" gradientUnits="userSpaceOnUse">
<stop stop-color="#4C3503"/>
<stop offset="1" stop-color="#976803"/>
</linearGradient>
<linearGradient id="paint1_linear_1013_531" x1="8.08639" y1="8.96045" x2="8.08639" y2="13.5089" gradientUnits="userSpaceOnUse">
<stop stop-color="#4C3503"/>
<stop offset="1" stop-color="#976803"/>
</linearGradient>
<linearGradient id="paint2_linear_1013_531" x1="11.084" y1="17.0051" x2="11.084" y2="20.1918" gradientUnits="userSpaceOnUse">
<stop stop-color="#4C3503"/>
<stop offset="1" stop-color="#976803"/>
</linearGradient>
</defs>
</svg>
