<svg width="34" height="34" viewBox="0 0 34 34" fill="none" xmlns="http://www.w3.org/2000/svg">
<path d="M16.9249 33.4897C16.6258 33.2498 16.3303 33.008 16.0303 32.7716C14.037 31.2053 12.0185 29.6785 9.76188 28.492C8.70788 27.9377 7.68522 27.318 6.676 26.684C5.86916 26.178 5.05784 25.6604 4.33069 25.0506C3.09939 24.0181 2.5603 22.6919 2.90507 21.0665C3.19252 19.7099 3.72265 18.4544 4.45159 17.2813C4.74979 16.8013 5.07037 16.332 5.40439 15.8762C6.95271 13.7682 8.81086 11.8841 10.0046 9.35614C10.104 9.63912 10.1747 9.76807 10.1926 9.90329C10.403 11.4552 11.235 12.6453 12.503 13.4674C13.5704 14.1596 14.7543 14.6736 15.8862 15.2664C16.033 15.3434 16.1826 15.416 16.3196 15.6237C16.0393 15.6577 15.759 15.69 15.4787 15.7267C12.5182 16.1144 9.76635 18.0944 9.2595 21.5859C9.05891 22.9704 9.46815 24.173 10.2392 25.2879C10.3905 25.5064 10.5633 25.7106 10.7648 25.9703C10.6413 25.9864 10.5481 26.0294 10.5078 25.9998C9.55233 25.2942 8.50102 24.6817 7.67358 23.847C5.87274 22.0292 5.64976 19.9696 6.85599 17.7111C7.12912 17.1989 7.4712 16.7234 7.81865 16.1735C5.18768 17.3234 3.87847 20.0824 4.71576 22.5737C5.03008 23.5094 5.61484 24.2563 6.38048 24.8509C6.89629 25.2512 7.44612 25.6192 8.01566 25.9389C10.9475 27.5875 14.0549 28.9335 16.7279 31.0486C16.95 30.9322 17.1417 30.8552 17.3073 30.7406C19.615 29.1457 22.0158 27.7066 24.5044 26.4091C25.2701 26.0097 26.0133 25.5619 26.7324 25.0846C27.2249 24.7569 27.7076 24.3861 28.1097 23.9545C29.6571 22.2943 29.6929 20.094 28.236 18.3586C27.6772 17.6932 27.0252 17.1362 26.1369 16.6455C26.2023 16.9329 26.2327 17.1111 26.2829 17.2831C26.4996 18.0245 26.7673 18.7544 26.9321 19.5066C27.3611 21.457 26.8014 23.1647 25.5145 24.6449C23.394 27.0861 18.338 29.2845 13.9573 27.3252C13.0206 26.9061 12.1412 26.4046 11.5538 25.5297C10.4111 23.8309 11.4168 21.5985 13.4101 21.4247C13.9018 21.3817 14.4023 21.4507 15.108 21.4749C14.7668 21.8116 14.5698 22.0086 14.3701 22.2038C13.5812 22.9739 13.3152 23.9241 13.4925 24.9843C13.6331 25.8261 14.114 26.452 14.8993 26.8282C15.9551 27.3341 17.0727 27.4631 18.2154 27.3207C19.3777 27.1756 20.4854 26.8219 21.5 26.2228C24.1623 24.6503 24.7919 21.1355 22.8746 18.7006C21.9684 17.5499 20.8633 16.6732 19.5228 16.0938C18.5109 15.6568 17.4676 15.2861 16.479 14.8025C15.5199 14.3342 14.534 13.8614 13.6985 13.2121C11.5985 11.5805 11.2699 9.24689 12.7215 7.03501C13.0152 6.58727 13.3349 6.15385 13.6707 5.73565C15.014 4.06376 16.1423 2.29247 16.3232 0C16.4888 0.0931315 16.6115 0.120892 16.6617 0.196114C17.4264 1.33071 18.2727 2.42321 18.9174 3.62318C19.7807 5.23059 19.529 6.22817 18.1285 7.39769C17.2205 8.15617 16.445 9.00242 15.9784 10.0976C15.3014 11.6844 15.7805 13.1647 17.3557 14.1435C17.2446 13.9545 17.199 13.8596 17.1372 13.7754C16.2677 12.5969 16.3456 11.3853 17.0351 10.171C17.7398 8.92988 18.7535 8.00752 20.0825 7.34844C19.512 9.44927 19.1341 11.5071 20.1971 13.5453C20.8427 14.7828 21.912 16.1512 22.9534 16.8899C22.9015 16.204 22.5487 15.7374 22.2254 15.2476C21.8994 14.7533 21.552 14.259 21.3245 13.7181C20.926 12.7698 20.9681 11.7865 21.4033 10.8525C21.7239 10.1648 22.0409 9.46091 22.666 8.91108C22.7278 9.04451 22.7761 9.11525 22.794 9.19316C23.3815 11.6826 24.7829 13.6241 26.8058 15.1473C27.9977 16.0446 28.8744 17.2078 29.5747 18.5C29.898 19.0964 30.1389 19.7484 30.3314 20.4012C30.6968 21.6405 30.5383 22.8566 29.7771 23.8972C29.2031 24.6825 28.5583 25.4661 27.7936 26.0509C26.5909 26.9705 25.305 27.8033 23.9743 28.5269C21.5511 29.846 19.2756 31.3504 17.2652 33.2462C17.1837 33.3268 17.0772 33.3832 16.9249 33.4897Z" fill="url(#paint0_linear_485_373)"/>
<defs>
<linearGradient id="paint0_linear_485_373" x1="16.8027" y1="14" x2="16.661" y2="33.4897" gradientUnits="userSpaceOnUse">
<stop stop-color="#B9F2FF"/>
<stop offset="1" stop-color="#0A2328"/>
</linearGradient>
</defs>
</svg>
