<svg width="34" height="34" viewBox="0 0 34 34" fill="none" xmlns="http://www.w3.org/2000/svg">
<path d="M10.5291 23.2987C11.0783 22.9439 11.6195 23.0406 12.1033 23.4062C12.4903 23.6983 12.8693 23.657 13.2815 23.5397C15.6539 22.8623 16.6529 20.5732 15.5249 18.3736C14.7257 16.8147 13.3594 15.9151 11.7619 15.4026C10.6339 15.0407 9.44501 14.8516 8.27221 14.6501C7.02415 14.4359 5.82268 14.1089 4.74754 13.428C2.58023 12.0563 1.57139 10.0977 1.84734 7.52724C2.01399 5.97545 2.45122 4.5052 3.35165 3C3.45558 3.49815 3.54696 3.84757 3.60072 4.20326C3.96716 6.63487 5.04858 8.72871 6.63083 10.578C6.95695 10.9587 7.34132 11.3153 7.76241 11.5841C8.91729 12.3206 10.1044 13.006 11.2808 13.7093C12.3282 14.3356 13.4087 14.9126 14.4184 15.5944C15.3198 16.2036 15.9962 17.044 16.3859 18.0574C16.9137 17.3997 17.3545 16.6426 17.9861 16.1149C18.8937 15.357 19.9187 14.7298 20.9338 14.1143C21.7993 13.5901 22.7355 13.1843 23.6181 12.687C26.6956 10.9543 28.4598 8.26909 29.233 4.87881C29.3459 4.38604 29.4364 3.88789 29.5439 3.39422C29.5546 3.34405 29.6164 3.30373 29.7069 3.19801C30.7319 5.09921 31.3044 7.0721 31.0966 9.20984C30.9407 10.8109 30.1218 12.0652 28.828 13.0078C27.623 13.8867 26.2629 14.3804 24.7998 14.6312C23.8017 14.8015 22.8001 14.9735 21.8172 15.2154C20.3371 15.5809 19.003 16.2556 18.0694 17.4965C17.6483 18.0556 17.2658 18.7078 17.0928 19.3771C16.5893 21.3276 18.0031 23.3273 20.0396 23.6329C20.295 23.6714 20.6193 23.5468 20.8487 23.3999C21.3782 23.0612 21.8925 23.0021 22.4462 23.2924C21.3173 24.5915 20.0907 25.8172 19.0926 27.2059C18.1106 28.5713 17.3598 30.1025 16.4809 31.6059C15.5885 30.0837 14.8207 28.5319 13.8253 27.1432C12.8478 25.776 11.6383 24.5736 10.5291 23.2987ZM17.9019 26.3126C17.3939 25.9767 16.9289 25.6693 16.4648 25.3629C15.9819 25.6962 15.5249 26.0107 15.0555 26.335C15.533 27.1315 15.9854 27.885 16.4881 28.7236C16.98 27.8859 17.4243 27.1271 17.9019 26.3126ZM18.8695 24.8164C17.8275 24.3774 17.0122 23.7027 16.4558 22.59C15.9568 23.7556 15.1191 24.3371 13.9964 24.8119C15.0716 25.1793 15.7892 24.7313 16.4863 24.2287C17.203 24.8245 17.9467 25.1569 18.8695 24.8164Z" fill="url(#paint0_linear_485_385)"/>
<defs>
<linearGradient id="paint0_linear_485_385" x1="16.4708" y1="3" x2="16.4708" y2="31.6059" gradientUnits="userSpaceOnUse">
<stop stop-color="#CA01AF"/>
<stop offset="1" stop-color="#73B4FF"/>
</linearGradient>
</defs>
</svg>
