<svg width="35" height="34" viewBox="0 0 35 34" fill="none" xmlns="http://www.w3.org/2000/svg">
<path d="M11.2059 25.1825C11.7551 24.8277 12.2962 24.9244 12.7801 25.29C13.1671 25.582 13.5461 25.5408 13.9582 25.4235C16.3307 24.7461 17.3297 22.457 16.2017 20.2574C15.4025 18.6985 14.0362 17.7989 12.4387 17.2864C11.3107 16.9245 10.1218 16.7354 8.94897 16.5338C7.70091 16.3197 6.49944 15.9927 5.4243 15.3118C3.25699 13.9401 2.24815 11.9815 2.5241 9.41103C2.69075 7.85924 3.12797 6.38899 4.0284 4.88379C4.13233 5.38194 4.22372 5.73136 4.27748 6.08705C4.64392 8.51866 5.72533 10.6125 7.30758 12.4617C7.63371 12.8425 8.01807 13.1991 8.43917 13.4679C9.59405 14.2044 10.7812 14.8898 11.9576 15.5931C13.0049 16.2194 14.0855 16.7964 15.0952 17.4782C15.9965 18.0874 16.673 18.9278 17.0627 19.9411C17.5904 19.2835 18.0312 18.5264 18.6629 17.9987C19.5705 17.2407 20.5954 16.6136 21.6105 15.9981C22.476 15.4739 23.4123 15.0681 24.2948 14.5708C27.3724 12.838 29.1365 10.1529 29.9097 6.7626C30.0226 6.26983 30.1131 5.77168 30.2206 5.27801C30.2314 5.22783 30.2932 5.18752 30.3837 5.08179C31.4087 6.983 31.9812 8.95589 31.7733 11.0936C31.6174 12.6947 30.7985 13.949 29.5048 14.8916C28.2997 15.7705 26.9397 16.2642 25.4766 16.515C24.4785 16.6853 23.4768 16.8573 22.494 17.0992C21.0138 17.4647 19.6798 18.1394 18.7462 19.3803C18.3251 19.9393 17.9425 20.5916 17.7696 21.2609C17.2661 23.2114 18.6799 25.2111 20.7164 25.5166C20.9717 25.5552 21.2961 25.4306 21.5254 25.2837C22.0549 24.945 22.5692 24.8859 23.1229 25.1762C21.994 26.4753 20.7675 27.701 19.7694 29.0897C18.7874 30.4551 18.0366 31.9863 17.1577 33.4897C16.2653 31.9675 15.4975 30.4157 14.5021 29.027C13.5246 27.6598 12.3151 26.4574 11.2059 25.1825ZM18.5786 28.1964C18.0706 27.8604 17.6056 27.5531 17.1415 27.2467C16.6586 27.58 16.2017 27.8945 15.7322 28.2188C16.2098 29.0153 16.6622 29.7688 17.1648 30.6074C17.6567 29.7697 18.1011 29.0109 18.5786 28.1964ZM19.5463 26.7002C18.5043 26.2612 17.689 25.5865 17.1326 24.4738C16.6335 25.6394 15.7958 26.2209 14.6732 26.6957C15.7483 27.0631 16.466 26.6151 17.163 26.1125C17.8798 26.7083 18.6234 27.0407 19.5463 26.7002Z" fill="url(#paint0_linear_485_397)"/>
<path d="M11.5359 23.0484C12.0878 22.9248 12.5905 22.8549 13.0653 22.6972C14.1046 22.354 14.5517 21.5405 14.2973 20.5523C14.05 19.5936 13.0904 18.9351 12.1237 19.1197C11.6918 19.2021 11.2815 19.4028 10.8649 19.5596C9.66878 20.0102 8.48792 20.5075 7.27569 20.9116C5.00894 21.6669 2.65707 20.6043 1.48158 18.9593C-0.0513913 16.8135 -0.379309 14.4455 0.42615 11.7747C0.643866 12.0309 0.800658 12.1841 0.920715 12.3624C1.77456 13.6239 2.69022 14.8245 3.87377 15.81C5.38255 17.067 7.09919 17.7005 9.05864 17.6118C10.3927 17.5517 11.6712 17.7211 12.8817 18.3052C13.7606 18.729 14.5033 19.3042 14.9818 20.1742C15.5937 21.287 15.4405 22.7563 14.6225 23.6854C13.9899 24.4031 13.0116 24.619 12.1873 24.223C11.6909 23.9847 11.5646 23.7661 11.5359 23.0484Z" fill="url(#paint1_linear_485_397)"/>
<path d="M33.817 11.7969C34.9459 14.6451 34.0625 18.2289 31.8307 19.9787C30.5826 20.9571 29.1518 21.3504 27.548 21.0314C26.0392 20.7313 24.6675 20.0835 23.2833 19.459C22.6794 19.1867 22.0765 18.9645 21.3884 19.175C20.5229 19.4402 19.9495 20.1418 19.9513 21.0019C19.9531 21.862 20.4405 22.4874 21.3436 22.7346C21.7987 22.8592 22.2691 22.9264 22.7251 23.0178C22.7341 23.8438 22.4662 24.2291 21.7432 24.3608C20.8463 24.5239 20.1 24.2578 19.54 23.5096C18.524 22.1514 18.912 20.0181 20.4252 18.9161C21.7736 17.9332 23.312 17.5516 24.9731 17.5919C25.5958 17.6071 26.231 17.6179 26.8411 17.5157C28.8095 17.1878 30.3765 16.1404 31.6506 14.6442C32.1908 14.0108 32.6675 13.3227 33.1719 12.6588C33.369 12.4016 33.5599 12.1418 33.817 11.7969Z" fill="url(#paint2_linear_485_397)"/>
<path d="M22.9966 0.0151367C25.2741 0.920943 27.0794 2.31683 27.8042 4.72067C28.6169 7.41479 28.2603 9.936 26.2103 11.9967C25.4443 12.7663 24.5197 13.4069 23.5879 13.9767C22.2368 14.8019 20.6877 15.1612 19.127 15.5706C21.3919 13.6524 22.9536 11.3032 23.7357 8.45947C24.5313 5.56734 24.3916 2.75406 22.9966 0.0151367Z" fill="url(#paint3_linear_485_397)"/>
<path d="M15.3044 15.7015C12.957 14.9704 10.7744 14.2877 8.95028 12.8166C6.17821 10.5812 5.3611 6.90957 6.9111 3.7173C7.68161 2.13147 9.51921 0.570721 11.2968 0C8.71554 6.15249 10.5576 11.1904 15.3044 15.7015Z" fill="url(#paint4_linear_485_397)"/>
<defs>
<linearGradient id="paint0_linear_485_397" x1="17.1476" y1="4.88379" x2="17.1476" y2="33.4897" gradientUnits="userSpaceOnUse">
<stop stop-color="#CA01AF"/>
<stop offset="1" stop-color="#73B4FF"/>
</linearGradient>
<linearGradient id="paint1_linear_485_397" x1="7.67775" y1="11.7747" x2="7.67775" y2="24.4191" gradientUnits="userSpaceOnUse">
<stop stop-color="#CA01AF"/>
<stop offset="1" stop-color="#73B4FF"/>
</linearGradient>
<linearGradient id="paint2_linear_485_397" x1="26.6412" y1="11.7969" x2="26.6412" y2="24.4069" gradientUnits="userSpaceOnUse">
<stop stop-color="#CA01AF"/>
<stop offset="1" stop-color="#73B4FF"/>
</linearGradient>
<linearGradient id="paint3_linear_485_397" x1="23.6675" y1="0.0151367" x2="23.6675" y2="15.5706" gradientUnits="userSpaceOnUse">
<stop stop-color="#CA01AF"/>
<stop offset="1" stop-color="#73B4FF"/>
</linearGradient>
<linearGradient id="paint4_linear_485_397" x1="10.7196" y1="0" x2="10.7196" y2="15.7015" gradientUnits="userSpaceOnUse">
<stop stop-color="#CA01AF"/>
<stop offset="1" stop-color="#73B4FF"/>
</linearGradient>
</defs>
</svg>
