<svg width="34" height="34" viewBox="0 0 34 34" fill="none" xmlns="http://www.w3.org/2000/svg">
<path d="M10.5291 25.1825C11.0783 24.8277 11.6195 24.9244 12.1033 25.29C12.4903 25.582 12.8693 25.5408 13.2815 25.4235C15.6539 24.7461 16.6529 22.457 15.5249 20.2574C14.7257 18.6985 13.3594 17.7989 11.7619 17.2864C10.6339 16.9245 9.44501 16.7354 8.27221 16.5338C7.02415 16.3197 5.82268 15.9927 4.74754 15.3118C2.58023 13.9401 1.57139 11.9815 1.84734 9.41103C2.01399 7.85924 2.45122 6.38899 3.35165 4.88379C3.45558 5.38194 3.54696 5.73136 3.60072 6.08705C3.96716 8.51866 5.04858 10.6125 6.63083 12.4617C6.95695 12.8425 7.34132 13.1991 7.76241 13.4679C8.91729 14.2044 10.1044 14.8898 11.2808 15.5931C12.3282 16.2194 13.4087 16.7964 14.4184 17.4782C15.3198 18.0874 15.9962 18.9278 16.3859 19.9411C16.9137 19.2835 17.3545 18.5264 17.9861 17.9987C18.8937 17.2407 19.9187 16.6136 20.9338 15.9981C21.7993 15.4739 22.7355 15.0681 23.6181 14.5708C26.6956 12.838 28.4598 10.1529 29.233 6.7626C29.3459 6.26983 29.4364 5.77168 29.5439 5.27801C29.5546 5.22783 29.6164 5.18752 29.7069 5.08179C30.7319 6.983 31.3044 8.95589 31.0966 11.0936C30.9407 12.6947 30.1218 13.949 28.828 14.8916C27.623 15.7705 26.2629 16.2642 24.7998 16.515C23.8017 16.6853 22.8001 16.8573 21.8172 17.0992C20.3371 17.4647 19.003 18.1394 18.0694 19.3803C17.6483 19.9393 17.2658 20.5916 17.0928 21.2609C16.5893 23.2114 18.0031 25.2111 20.0396 25.5166C20.295 25.5552 20.6193 25.4306 20.8487 25.2837C21.3782 24.945 21.8925 24.8859 22.4462 25.1762C21.3173 26.4753 20.0907 27.701 19.0926 29.0897C18.1106 30.4551 17.3598 31.9863 16.4809 33.4897C15.5885 31.9675 14.8207 30.4157 13.8253 29.027C12.8478 27.6598 11.6383 26.4574 10.5291 25.1825ZM17.9019 28.1964C17.3939 27.8604 16.9289 27.5531 16.4648 27.2467C15.9819 27.58 15.5249 27.8945 15.0555 28.2188C15.533 29.0153 15.9854 29.7688 16.4881 30.6074C16.98 29.7697 17.4243 29.0109 17.9019 28.1964ZM18.8695 26.7002C17.8275 26.2612 17.0122 25.5865 16.4558 24.4738C15.9568 25.6394 15.1191 26.2209 13.9964 26.6957C15.0716 27.0631 15.7892 26.6151 16.4863 26.1125C17.203 26.7083 17.9467 27.0407 18.8695 26.7002Z" fill="url(#paint0_linear_485_390)"/>
<path d="M22.3208 0.0151367C24.5983 0.920943 26.4036 2.31683 27.1285 4.72067C27.9411 7.41479 27.5845 9.936 25.5346 11.9967C24.7685 12.7663 23.8439 13.4069 22.9121 13.9767C21.561 14.8019 20.0119 15.1612 18.4512 15.5706C20.7161 13.6524 22.2778 11.3032 23.0599 8.45947C23.8555 5.56734 23.7158 2.75406 22.3208 0.0151367Z" fill="url(#paint1_linear_485_390)"/>
<path d="M14.6276 15.7015C12.2802 14.9704 10.0977 14.2877 8.27352 12.8166C5.50145 10.5812 4.68434 6.90957 6.23434 3.7173C7.00486 2.13147 8.84245 0.570721 10.62 0C8.03878 6.15249 9.88086 11.1904 14.6276 15.7015Z" fill="url(#paint2_linear_485_390)"/>
<defs>
<linearGradient id="paint0_linear_485_390" x1="16.4708" y1="4.88379" x2="16.4708" y2="33.4897" gradientUnits="userSpaceOnUse">
<stop stop-color="#CA01AF"/>
<stop offset="1" stop-color="#73B4FF"/>
</linearGradient>
<linearGradient id="paint1_linear_485_390" x1="22.9917" y1="0.0151367" x2="22.9917" y2="15.5706" gradientUnits="userSpaceOnUse">
<stop stop-color="#CA01AF"/>
<stop offset="1" stop-color="#73B4FF"/>
</linearGradient>
<linearGradient id="paint2_linear_485_390" x1="10.0428" y1="0" x2="10.0428" y2="15.7015" gradientUnits="userSpaceOnUse">
<stop stop-color="#CA01AF"/>
<stop offset="1" stop-color="#73B4FF"/>
</linearGradient>
</defs>
</svg>
