<svg width="36" height="34" viewBox="0 0 36 34" fill="none" xmlns="http://www.w3.org/2000/svg">
<path d="M3.87262 18.7437C3.65384 18.971 3.4237 19.2058 3.19735 19.4445C2.79105 19.8735 2.34119 20.0743 1.7701 19.7504C1.20753 19.4322 0.63928 19.1234 0 18.7711C0.590032 18.0656 1.18953 17.5986 1.89511 17.3505C2.1906 17.2463 2.61868 17.4149 2.95111 17.5475C3.22292 17.6555 3.44264 17.8941 3.86409 18.2076C3.69457 16.6819 3.812 15.3673 4.07056 14.0461C4.33763 12.6804 5.01006 11.5373 5.90789 10.2379C5.44193 10.2881 5.18432 10.3033 4.93145 10.3459C3.37729 10.6101 2.46999 10.1394 1.83829 8.69229C1.61193 8.17518 1.44619 7.63061 1.2672 7.09361C1.21037 6.92314 1.2009 6.73656 1.16302 6.51305C1.36474 6.4657 1.51249 6.39656 1.6555 6.40414C2.31561 6.43918 2.97384 6.49411 3.633 6.54431C4.85758 6.63712 5.6465 7.34648 5.88516 8.56254C5.95714 8.93095 6.03386 9.29747 6.11057 9.67536C6.48561 9.85341 6.68734 9.56076 6.91464 9.37229C8.23677 8.27747 9.76157 7.61356 11.4502 7.41089C13.4864 7.16654 15.2338 7.88064 16.6753 9.30789C17.3127 9.93865 17.2748 10.4529 16.68 11.1206C16.3324 11.5099 16.071 11.5439 15.7632 11.1036C14.7404 9.64221 13.2089 9.42059 11.6453 9.50109C8.20646 9.67725 5.86906 12.2476 5.83118 15.6997C5.79519 18.9624 7.14573 21.4779 9.88374 23.211C10.9682 23.8977 12.134 24.4735 13.3103 24.9897C15.0217 25.7407 16.5654 26.6556 17.4869 28.3641C17.5305 28.4456 17.5996 28.5138 17.701 28.6473C17.8809 28.4512 18.0429 28.3158 18.1518 28.1472C18.9833 26.8668 20.1179 25.9623 21.5006 25.3268C22.7281 24.7624 23.9536 24.1837 25.1393 23.5378C27.6434 22.1721 29.2108 20.0611 29.6588 17.253C30.0774 14.6276 29.422 12.2372 27.2049 10.6101C25.2899 9.20466 23.0993 9.08627 20.9362 10.093C20.3679 10.3573 19.9408 10.9246 19.4199 11.3773C18.3374 10.988 18.0684 10.1205 18.9066 9.31168C20.6937 7.58894 22.7925 6.93735 25.234 7.63629C26.4899 7.99618 27.6595 8.51992 28.6473 9.40165C28.832 9.56644 29.0602 9.68388 29.3633 9.88656C29.458 9.41396 29.5291 9.00198 29.6238 8.59663C29.9164 7.3427 30.5121 6.74888 31.7878 6.5784C32.6213 6.46759 33.4708 6.47706 34.4501 6.42592C34.0978 7.57 33.8714 8.64209 33.2113 9.54087C32.5985 10.3753 31.714 10.5135 30.7527 10.3696C30.4629 10.326 30.175 10.2692 29.8217 10.2985C31.4213 12.6672 32.0511 15.2177 31.642 18.1508C31.9318 17.9898 32.0739 17.9396 32.1799 17.8477C33.1052 17.0522 33.4244 17.1734 34.3639 17.7398C34.7588 17.9775 35.0894 18.3213 35.5014 18.6603C35.1822 18.9179 34.9606 19.1462 34.6954 19.3034C33.145 20.2183 32.9262 20.1018 31.947 19.023C31.8513 18.917 31.7159 18.8469 31.5852 18.7493C31.2755 19.597 31.0254 20.3954 30.6968 21.1597C29.8151 23.212 28.2353 24.6421 26.3772 25.7776C25.1431 26.5315 23.8797 27.2494 22.5784 27.8783C20.5128 28.8765 19.1206 30.4562 18.2351 32.5322C18.1177 32.8069 17.9737 33.0711 17.7691 33.4897C17.5466 33.0702 17.3752 32.8163 17.27 32.537C16.4233 30.2971 14.855 28.7818 12.7221 27.7229C11.149 26.9416 9.61856 26.0457 8.16006 25.0654C5.97987 23.5993 4.61892 21.5262 4.07529 18.9388C4.06677 18.8914 3.99384 18.8573 3.87262 18.7437Z" fill="url(#paint0_linear_1013_586)"/>
<path d="M15.4958 22.4867C14.4796 21.8663 13.4804 21.2157 12.4415 20.6351C11.394 20.0508 10.2954 19.5744 9.04336 19.7401C8.64937 19.7922 8.25917 19.8737 7.76953 19.9579C8.07449 18.9986 8.79806 18.7201 9.51595 18.4871C9.66748 18.0183 9.26876 17.8412 9.11249 17.5599C8.77912 16.9623 8.29421 16.449 8.25349 15.7037C8.16636 14.1012 8.98748 12.9978 10.2528 12.2175C11.2207 11.6208 12.3364 11.4948 13.4444 11.8178C14.2457 12.0508 14.8982 12.4987 15.1615 13.4458C14.8499 13.4638 14.6075 13.5017 14.3669 13.4884C12.9396 13.4117 12.1886 14.3683 11.9016 15.4896C11.5266 16.9557 11.9367 18.2295 12.8876 19.3348C13.5429 20.0962 14.2873 20.7791 14.9749 21.5131C15.2221 21.7773 15.4182 22.0908 15.6379 22.3806C15.5905 22.4166 15.5432 22.4516 15.4958 22.4867Z" fill="url(#paint1_linear_1013_586)"/>
<path d="M20.4692 13.4713C20.437 12.6938 20.9797 12.3642 21.4826 12.0829C23.6912 10.8498 26.8895 12.4504 27.2693 14.9535C27.3952 15.7803 27.1547 16.5086 26.684 17.1792C26.4169 17.5589 26.1555 17.9425 25.8401 18.399C26.6281 18.7418 27.4539 18.9464 27.7163 19.9124C27.2825 19.8471 26.9207 19.7836 26.557 19.7382C25.412 19.5961 24.3693 19.9456 23.3976 20.4883C22.4098 21.0404 21.4627 21.6664 20.4957 22.2574C20.3234 22.3625 20.1434 22.4544 19.9673 22.5519C19.9199 22.498 19.8725 22.4449 19.8252 22.3909C20.4001 21.7498 20.956 21.0906 21.5546 20.4722C22.3208 19.6794 23.139 18.9445 23.5302 17.8573C23.9024 16.8221 23.8853 15.8362 23.4042 14.8465C22.9231 13.8558 22.1484 13.3946 21.0488 13.4685C20.866 13.4817 20.6804 13.4713 20.4692 13.4713Z" fill="url(#paint2_linear_1013_586)"/>
<path d="M17.7647 9.07683C16.8811 8.14206 15.9587 7.43648 15.3203 6.44773C14.9396 5.8577 14.8269 5.22884 15.003 4.5602C15.1063 4.16811 15.2057 3.75328 15.4141 3.41518C16.1301 2.24932 16.8934 1.11282 17.617 0C17.8055 0.0549307 17.8907 0.0530366 17.9182 0.0918669C18.7677 1.28992 19.7015 2.42642 20.2991 3.79685C20.8475 5.05363 20.5937 6.13235 19.7432 7.10216C19.1683 7.75754 18.5082 8.34095 17.7647 9.07683Z" fill="url(#paint3_linear_1013_586)"/>
<defs>
<linearGradient id="paint0_linear_1013_586" x1="17.7507" y1="6.40356" x2="17.7507" y2="33.4897" gradientUnits="userSpaceOnUse">
<stop stop-color="#CC8800"/>
<stop offset="1" stop-color="#DFB96B"/>
</linearGradient>
<linearGradient id="paint1_linear_1013_586" x1="11.7037" y1="11.6445" x2="11.7037" y2="22.4867" gradientUnits="userSpaceOnUse">
<stop stop-color="#CC8800"/>
<stop offset="1" stop-color="#DFB96B"/>
</linearGradient>
<linearGradient id="paint2_linear_1013_586" x1="23.7707" y1="11.658" x2="23.7707" y2="22.5519" gradientUnits="userSpaceOnUse">
<stop stop-color="#CC8800"/>
<stop offset="1" stop-color="#DFB96B"/>
</linearGradient>
<linearGradient id="paint3_linear_1013_586" x1="17.7555" y1="0" x2="17.7555" y2="9.07683" gradientUnits="userSpaceOnUse">
<stop stop-color="#CC8800"/>
<stop offset="1" stop-color="#DFB96B"/>
</linearGradient>
</defs>
</svg>
