<svg width="34" height="34" viewBox="0 0 34 34" fill="none" xmlns="http://www.w3.org/2000/svg">
<path d="M4.00008 19.4445C4.22643 19.2058 4.45657 18.971 4.67535 18.7437C4.79658 18.8573 4.8695 18.8914 4.87803 18.9388C5.42165 21.5262 6.78261 23.5993 8.96279 25.0654C10.4213 26.0457 11.9518 26.9416 13.5249 27.7229C15.6577 28.7818 17.2261 30.2971 18.0728 32.537C18.1779 32.8163 18.3493 33.0702 18.5719 33.4897C18.7764 33.0711 18.9204 32.8069 19.0378 32.5322C19.9234 30.4562 21.3156 28.8765 23.3812 27.8783C24.6824 27.2494 25.9459 26.5315 27.1799 25.7776C29.0381 24.6421 30.6178 23.212 31.4995 21.1597C31.8282 20.3954 32.135 18.9984 32.4447 18.1508C32.8539 15.2177 32.2241 12.6672 30.6244 10.2985C30.3214 10.0959 29.6347 9.56644 29.4501 9.40165C28.4623 8.51992 27.2926 7.99618 26.0368 7.63629C23.5952 6.93735 21.4965 7.58894 19.7093 9.31168C18.8712 10.1205 19.1401 10.988 20.2226 11.3773C20.7435 10.9246 21.1707 10.3573 21.7389 10.093C23.9021 9.08627 26.0927 9.20466 28.0077 10.6101C30.2248 12.2372 30.8801 14.6276 30.4615 17.253C30.0136 20.061 28.4461 22.1721 25.9421 23.5378C24.7563 24.1837 23.5308 24.7624 22.3034 25.3268C20.9206 25.9623 19.786 26.8668 18.9545 28.1472C18.8456 28.3158 18.6836 28.4512 18.5037 28.6473C18.4023 28.5137 18.3332 28.4456 18.2896 28.3641C17.3681 26.6556 15.8244 25.7407 14.113 24.9897C12.9367 24.4735 11.7709 23.8977 10.6865 23.211C7.94847 21.4779 6.59793 18.9624 6.63392 15.6997C6.6718 12.2476 9.0092 9.67725 12.448 9.50109C14.0117 9.42059 15.5431 9.64221 16.566 11.1036C16.8738 11.5439 17.1352 11.5099 17.4827 11.1206C18.0775 10.4529 18.1154 9.93865 17.478 9.30789C16.0365 7.88064 14.2892 7.16654 12.2529 7.41089C10.5643 7.61356 9.0395 8.27747 7.71738 9.37229C7.49008 9.56076 7.28835 9.85341 6.9133 9.67536C6.83659 9.29747 6.75988 8.93095 6.6879 8.56254C6.44923 7.34648 5.66032 6.63712 4.43574 6.54431C3.77657 6.49411 3.11835 6.43918 2.45823 6.40414C2.31522 6.39656 2.16748 6.4657 1.96575 6.51305C2.00363 6.73656 2.0131 6.92314 2.06993 7.09361C2.24893 7.63061 2.41467 8.17518 2.64102 8.69229C3.27272 10.1394 4.18003 10.6101 5.73419 10.3459C5.98706 10.3033 6.24466 10.2881 6.71063 10.2379C5.8128 11.5373 5.14037 12.6804 4.87329 14.0461C4.61474 15.3673 4.4973 16.6819 4.66683 18.2076C4.24538 17.8941 4.02565 17.6555 3.75384 17.5475C3.42141 17.4149 2.99333 17.2463 2.69784 17.3505C1.99227 17.5986 1.39277 18.0655 0.802734 18.7711C1.44201 19.1234 2.01026 19.4322 2.57283 19.7504C3.14392 20.0743 3.59378 19.8735 4.00008 19.4445Z" fill="url(#paint0_linear_1013_578)"/>
<path d="M16.2986 22.4867C15.2823 21.8663 14.2832 21.2157 13.2442 20.6351C12.1967 20.0508 11.0981 19.5744 9.84609 19.7401C9.4521 19.7922 9.06191 19.8737 8.57227 19.9579C8.87723 18.9986 9.6008 18.7201 10.3187 18.4871C10.4702 18.0183 10.0715 17.8412 9.91523 17.5599C9.58185 16.9623 9.09695 16.449 9.05622 15.7037C8.96909 14.1012 9.79021 12.9978 11.0555 12.2175C12.0234 11.6208 13.1391 11.4948 14.2472 11.8178C15.0484 12.0508 15.7009 12.4987 15.9642 13.4458C15.6526 13.4638 15.4102 13.5017 15.1696 13.4884C13.7424 13.4117 12.9913 14.3683 12.7044 15.4896C12.3293 16.9557 12.7394 18.2295 13.6903 19.3348C14.3457 20.0962 15.0901 20.7791 15.7777 21.5131C16.0248 21.7773 16.2209 22.0908 16.4406 22.3806C16.3933 22.4166 16.3459 22.4516 16.2986 22.4867Z" fill="url(#paint1_linear_1013_578)"/>
<path d="M18.5675 9.07683C17.6838 8.14206 16.7614 7.43648 16.1231 6.44773C15.7423 5.8577 15.6296 5.22884 15.8058 4.5602C15.909 4.16811 16.0085 3.75328 16.2168 3.41518C16.9328 2.24932 17.6962 1.11282 18.4197 0C18.6082 0.0549307 18.6934 0.0530366 18.7209 0.0918669C19.5704 1.28992 20.5043 2.42642 21.1019 3.79685C21.6502 5.05363 21.3964 6.13235 20.5459 7.10216C19.971 7.75754 19.3109 8.34095 18.5675 9.07683Z" fill="url(#paint2_linear_1013_578)"/>
<defs>
<linearGradient id="paint0_linear_1013_578" x1="16.6844" y1="6.40356" x2="16.6844" y2="33.4897" gradientUnits="userSpaceOnUse">
<stop stop-color="#CC8800"/>
<stop offset="1" stop-color="#DFB96B"/>
</linearGradient>
<linearGradient id="paint1_linear_1013_578" x1="12.5064" y1="11.6445" x2="12.5064" y2="22.4867" gradientUnits="userSpaceOnUse">
<stop stop-color="#CC8800"/>
<stop offset="1" stop-color="#DFB96B"/>
</linearGradient>
<linearGradient id="paint2_linear_1013_578" x1="18.5582" y1="0" x2="18.5582" y2="9.07683" gradientUnits="userSpaceOnUse">
<stop stop-color="#CC8800"/>
<stop offset="1" stop-color="#DFB96B"/>
</linearGradient>
</defs>
</svg>
