<svg width="34" height="34" viewBox="0 0 34 34" fill="none" xmlns="http://www.w3.org/2000/svg">
<path d="M2.58857 14.0461C2.33002 15.3672 2.21258 16.6818 2.38211 18.2075C2.92573 20.795 4.49789 23.5993 6.67807 25.0653C8.13658 26.0456 9.66705 26.9415 11.2402 27.7228C13.373 28.7817 14.9414 30.297 15.788 32.5369C15.8932 32.8162 16.0646 33.0701 16.2872 33.4896C16.4917 33.071 16.6357 32.8068 16.7531 32.5321C17.6386 30.4561 19.0309 28.8764 21.0964 27.8782C22.3977 27.2493 23.6611 26.5314 24.8952 25.7775C26.7534 24.642 28.3331 23.2119 29.2148 21.1596C29.5435 20.3953 29.8503 18.9983 30.16 18.1507C30.5691 15.2176 29.9393 12.6671 28.3397 10.2984C28.0367 10.0958 27.7027 9.66479 27.5181 9.5C26.5303 8.61827 25.0079 7.9961 23.7521 7.6362C21.3105 6.93726 19.2117 7.58885 17.4246 9.31159C16.5864 10.1204 16.8554 10.9879 17.9379 11.3772C18.4588 10.9245 18.886 10.3572 19.4542 10.0929C21.6173 9.08619 23.8079 9.20457 25.7229 10.61C27.94 12.2371 28.5954 14.6276 28.1768 17.2529C27.7289 20.061 26.1614 22.172 23.6573 23.5377C22.4716 24.1836 21.2461 24.7623 20.0187 25.3267C18.6359 25.9622 17.5013 26.8667 16.6698 28.1471C16.5609 28.3157 16.3989 28.4512 16.219 28.6472C16.1176 28.5137 16.0485 28.4455 16.0049 28.364C15.0834 26.6555 13.5397 25.7406 11.8283 24.9896C10.652 24.4734 9.48616 23.8976 8.40176 23.211C5.66374 21.4778 4.31321 18.9623 4.34919 15.6997C4.38708 12.2475 6.72447 9.67716 10.1633 9.50101C11.727 9.42051 13.2584 9.64212 14.2812 11.1035C14.589 11.5439 14.8504 11.5098 15.198 11.1205C15.7928 10.4528 15.8307 9.93856 15.1933 9.3078C13.7518 7.88055 12.0045 7.16645 9.96823 7.4108C8.27958 7.61347 6.01797 8.5 4.42591 10.2378C3.52808 11.5372 2.85565 12.6804 2.58857 14.0461Z" fill="url(#paint0_linear_1013_571)"/>
<path d="M16.2823 9.07683C15.3987 8.14206 14.4762 7.43648 13.8379 6.44773C13.4572 5.8577 13.3445 5.22884 13.5206 4.5602C13.6239 4.16811 13.7233 3.75328 13.9317 3.41518C14.6477 2.24932 15.411 1.11282 16.1346 0C16.323 0.0549307 16.4083 0.0530366 16.4357 0.0918669C17.2853 1.28992 18.2191 2.42642 18.8167 3.79685C19.3651 5.05363 19.1112 6.13235 18.2608 7.10216C17.6859 7.75754 17.0258 8.34095 16.2823 9.07683Z" fill="url(#paint1_linear_1013_571)"/>
<defs>
<linearGradient id="paint0_linear_1013_571" x1="16.2921" y1="7.35986" x2="16.2921" y2="33.4896" gradientUnits="userSpaceOnUse">
<stop stop-color="#CC8800"/>
<stop offset="1" stop-color="#DFB96B"/>
</linearGradient>
<linearGradient id="paint1_linear_1013_571" x1="16.273" y1="0" x2="16.273" y2="9.07683" gradientUnits="userSpaceOnUse">
<stop stop-color="#CC8800"/>
<stop offset="1" stop-color="#DFB96B"/>
</linearGradient>
</defs>
</svg>
