<svg width="34" height="34" viewBox="0 0 34 34" fill="none" xmlns="http://www.w3.org/2000/svg">
<path d="M10.5391 26.3614C10.9178 26.4754 11.2957 26.5894 11.7358 26.7217C12.5652 25.7363 13.1815 24.6185 13.6295 23.4218C14.0722 22.2373 14.4107 21.0134 14.8587 19.6028C15.3961 22.2855 16.257 24.6544 17.8465 26.7235C18.2831 26.5894 18.6627 26.4736 19.1072 26.3377C17.6484 28.9232 16.2298 31.435 14.7955 33.9775C14.8359 33.9775 14.8061 33.9818 14.778 33.9766C14.7526 33.9713 14.7219 33.9617 14.7061 33.9424C14.6684 33.8986 14.6307 33.853 14.6062 33.8012C13.4059 31.2535 12.0295 28.8031 10.5391 26.3614ZM16.3464 27.4056C16.0957 26.777 15.7634 26.037 15.5039 25.2716C15.2453 24.5107 15.0603 23.726 14.8367 22.9308C14.2949 24.5405 13.7803 26.0703 13.2551 27.6318C13.7549 28.1061 14.2897 28.6146 14.8113 29.1099C15.3242 28.5401 15.7897 28.0237 16.3464 27.4056Z" fill="url(#paint0_linear_485_407)"/>
<path d="M9.19371 8.92358C8.75096 9.3295 8.45639 9.59866 8.13288 9.89499C9.14812 12.3717 10.8025 14.3356 12.7733 16.1065C10.2747 15.2763 7.74624 14.866 5.09505 15.1912C4.98984 15.6121 4.88902 16.0154 4.78206 16.4432C3.27059 13.8893 1.79508 11.3977 0.330078 8.92358C3.20659 8.92358 6.1024 8.92358 9.19371 8.92358ZM5.05647 13.4115C6.76169 13.7718 8.38099 14.1138 9.8679 14.4285C8.83338 13.2686 7.71994 12.021 6.59423 10.7603C5.93582 10.9506 5.24321 11.1505 4.5357 11.3547C4.71367 12.0579 4.88989 12.7531 5.05647 13.4115Z" fill="url(#paint1_linear_485_407)"/>
<path d="M29.2758 8.92261C27.7986 11.4177 26.3231 13.9103 24.8151 16.458C24.716 16.0284 24.6249 15.6374 24.5232 15.1947C21.8991 14.8641 19.3672 15.2578 16.8545 16.1029C18.7885 14.3381 20.4403 12.3892 21.5029 9.84141C21.1837 9.60206 20.8436 9.34694 20.5034 9.09181C20.5341 9.0357 20.5639 8.97959 20.5946 8.92348C23.4869 8.92261 26.38 8.92261 29.2758 8.92261ZM23.0196 10.7585C21.8562 12.0569 20.748 13.2931 19.731 14.4284C21.2495 14.1084 22.8846 13.7638 24.5442 13.414C24.7099 12.767 24.8887 12.0692 25.0711 11.3564C24.3802 11.1547 23.6885 10.9531 23.0196 10.7585Z" fill="url(#paint2_linear_485_407)"/>
<path d="M14.7568 0.489502C16.2078 3.06706 17.6184 5.57272 19.0702 8.1529C18.6827 8.0512 18.2917 7.94775 17.8455 7.83027C16.2525 9.87916 15.3933 12.2612 14.805 14.8063C14.2176 12.277 13.3637 9.89757 11.7531 7.81887C11.3428 7.94249 10.9623 8.05734 10.3916 8.23005C11.2289 6.85799 12.0091 5.65601 12.7105 4.41019C13.4242 3.14158 14.0615 1.83001 14.7568 0.489502ZM13.276 6.97897C13.7898 8.50271 14.3009 10.0212 14.8006 11.5037C15.3056 10.0133 15.8202 8.49307 16.3533 6.92111C15.8676 6.45733 15.3319 5.94532 14.7769 5.41579C14.2325 5.98215 13.7337 6.50204 13.276 6.97897Z" fill="url(#paint3_linear_485_407)"/>
<path d="M16.8535 18.4614C19.3478 19.2303 21.8648 19.7388 24.5152 19.3478C24.6169 18.9243 24.7098 18.5351 24.8159 18.0906C26.3282 20.6436 27.8099 23.144 29.2749 25.6163C26.422 25.6163 23.5157 25.6163 20.4349 25.6163C20.8478 25.2306 21.1345 24.9623 21.4773 24.6414C20.4665 22.2059 18.8367 20.235 16.8535 18.4614ZM24.5397 21.1144C22.8827 20.776 21.2687 20.4454 19.7642 20.1386C20.7988 21.3002 21.9078 22.5469 23.0116 23.7866C23.6858 23.5911 24.3758 23.3912 25.0701 23.1905C24.8781 22.44 24.7002 21.7421 24.5397 21.1144Z" fill="url(#paint4_linear_485_407)"/>
<path d="M4.79581 18.0825C4.88786 18.499 4.9694 18.8646 5.07197 19.3301C7.69599 19.7728 10.2306 19.2187 12.7704 18.4499C10.8145 20.2042 9.16274 22.161 8.09315 24.7263C8.39912 24.9709 8.72789 25.2322 9.20395 25.6118C6.09861 25.6118 3.20456 25.6118 0.335938 25.6118C1.78778 23.1605 3.26506 20.6662 4.79581 18.0825ZM5.05882 21.1151C4.89751 21.7709 4.72129 22.488 4.54594 23.2026C5.30343 23.4165 5.99604 23.612 6.59571 23.7812C7.73282 22.5047 8.82433 21.2808 9.83957 20.1402C8.32723 20.4488 6.71231 20.7776 5.05882 21.1151Z" fill="url(#paint5_linear_485_407)"/>
<path d="M17.3516 21.7087C16.8642 21.4921 16.3706 21.3177 15.9287 21.0555C15.735 20.9407 15.5894 20.6636 15.5219 20.4322C15.2878 19.6282 15.0985 18.812 14.8451 17.8187C14.7197 18.1176 14.6452 18.2518 14.6075 18.3947C14.4979 18.8173 14.3445 19.2398 14.3138 19.6703C14.2217 20.9643 13.3687 21.4202 12.2263 21.6631C12.1729 21.2405 12.1439 20.8381 12.0676 20.4444C11.987 20.0271 12.115 19.7124 12.4192 19.4327C12.8058 19.0785 13.1785 18.7077 13.5546 18.3421C13.7799 18.122 14.0008 17.8967 14.1683 17.5504C13.9368 17.6074 13.7036 17.6609 13.473 17.724C13.2205 17.7932 12.9715 17.8792 12.7182 17.9449C10.9665 18.4017 11.4338 18.648 9.66895 17.2479C10.1485 16.8999 10.5904 16.5457 11.0699 16.2529C11.2111 16.1669 11.4671 16.2187 11.6547 16.2669C12.2754 16.4264 12.8883 16.6141 13.5055 16.7885C13.7773 16.8657 14.0499 16.9384 14.5128 17.0656C13.7974 16.3852 13.2503 15.8198 12.6542 15.3113C12.1369 14.8694 11.9125 14.3767 12.0975 13.7042C12.1658 13.4552 12.1711 13.1887 12.2044 12.931C13.4949 13.0546 13.9596 13.4351 14.2586 14.6108C14.4216 15.2534 14.5733 15.8995 14.8661 16.5632C14.9126 16.4291 14.9687 16.2976 15.0029 16.1599C15.109 15.7365 15.2615 15.3148 15.2984 14.8843C15.4062 13.6297 16.1795 13.08 17.3148 12.8757C17.3499 12.9169 17.4095 12.9546 17.4156 12.9994C17.6567 14.6765 17.6559 14.6765 16.4092 15.8504C16.0295 16.2073 15.6526 16.5667 15.3299 17.0305C16.0453 16.8157 16.773 16.6342 17.4735 16.3773C18.1766 16.1187 18.7693 16.1959 19.305 16.7298C19.4847 16.9086 19.6986 17.0524 19.9757 17.2751C19.5145 17.6039 19.1436 17.9379 18.7123 18.1483C18.4581 18.2719 18.0916 18.2702 17.8049 18.2027C17.0167 18.0168 16.2443 17.7661 15.2975 17.4925C15.4649 17.7328 15.521 17.8459 15.6061 17.9283C15.8998 18.2114 16.2172 18.4718 16.5021 18.7638C17.7453 20.0359 17.7628 19.5265 17.3516 21.7087Z" fill="url(#paint6_linear_485_407)"/>
<defs>
<linearGradient id="paint0_linear_485_407" x1="8.61501" y1="19.1735" x2="18.741" y2="30.053" gradientUnits="userSpaceOnUse">
<stop stop-color="#FF0909"/>
<stop offset="1"/>
</linearGradient>
<linearGradient id="paint1_linear_485_407" x1="-2.46416" y1="8.69905" x2="0.736296" y2="18.2464" gradientUnits="userSpaceOnUse">
<stop stop-color="#FF0909"/>
<stop offset="1"/>
</linearGradient>
<linearGradient id="paint2_linear_485_407" x1="14.0652" y1="8.6976" x2="17.2822" y2="18.2575" gradientUnits="userSpaceOnUse">
<stop stop-color="#FF0909"/>
<stop offset="1"/>
</linearGradient>
<linearGradient id="paint3_linear_485_407" x1="8.44274" y1="0.0620026" x2="18.5131" y2="11.0668" gradientUnits="userSpaceOnUse">
<stop stop-color="#FF0909"/>
<stop offset="1"/>
</linearGradient>
<linearGradient id="paint4_linear_485_407" x1="14.0642" y1="17.8659" x2="17.2739" y2="27.416" gradientUnits="userSpaceOnUse">
<stop stop-color="#FF0909"/>
<stop offset="1"/>
</linearGradient>
<linearGradient id="paint5_linear_485_407" x1="-2.45633" y1="17.8577" x2="0.753309" y2="27.4134" gradientUnits="userSpaceOnUse">
<stop stop-color="#FF0909"/>
<stop offset="1"/>
</linearGradient>
<linearGradient id="paint6_linear_485_407" x1="7.35449" y1="12.612" x2="12.1918" y2="22.7874" gradientUnits="userSpaceOnUse">
<stop stop-color="#FF0909"/>
<stop offset="1"/>
</linearGradient>
</defs>
</svg>
